
<svg width="168px" height="34px" viewBox="-1 -1 168 34" version="1.1" xmlns="http://www.w3.org/2000/svg" xmlns:xlink="http://www.w3.org/1999/xlink">
    <!-- Generator: Sketch 42 (36781) - http://www.bohemiancoding.com/sketch -->
    <desc>Created with Sketch.</desc>
    <defs>
        <polygon id="path-1" points="0 32.8843118 166.923495 32.8843118 166.923495 -1.42108547e-14 0 -1.42108547e-14"></polygon>
    </defs>
    <g id="Logo-codaisseur" stroke="none" stroke-width="1" fill="none" fill-rule="evenodd">
        <g id="Group-3" transform="translate(0.000000, 5.907125)" fill="#FFFFFF">
            <path d="M3.90526664,13.8390205 C5.08170287,13.8390205 6.02988475,14.1662601 6.74968626,14.8192335 C7.4692357,15.4728342 7.82919947,16.3256897 7.82919947,17.3781764 C7.82919947,18.4445909 7.4692357,19.3136327 6.74968626,19.9858038 C6.02988475,20.6578494 5.08170287,20.9938722 3.90526664,20.9938722 C2.75353381,20.9938722 1.81467872,20.6545871 1.08895343,19.9763932 C0.362976075,19.2976973 -1.26037735e-05,18.4317924 -1.26037735e-05,17.3781764 C-1.26037735e-05,16.3382373 0.362976075,15.4885186 1.08895343,14.8283932 C1.81467872,14.169397 2.75353381,13.8390205 3.90526664,13.8390205 M3.90526664,0.0760129278 C5.08170287,0.0760129278 6.02370891,0.40275057 6.73090664,1.0559749 C7.4378523,1.70945019 7.79176626,2.56255665 7.79176626,3.61554525 C7.79176626,4.69387985 7.43495343,5.56919544 6.72157985,6.24149202 C6.00808023,6.91403954 5.06947721,7.25006236 3.90526664,7.25006236 C2.75353381,7.25006236 1.81467872,6.91077719 1.08895343,6.23208137 C0.362976075,5.5536365 -1.26037735e-05,4.68120684 -1.26037735e-05,3.61554525 C-1.26037735e-05,2.56255665 0.359573057,1.70945019 1.07975268,1.0559749 C1.79930211,0.40275057 2.74105608,0.0760129278 3.90526664,0.0760129278" id="Fill-1"></path>
        </g>
        <path d="M20.0603677,16.4220422 C21.0244303,17.0486658 21.6904137,17.7790574 22.05857,18.6107076 C22.4263481,19.4419814 22.6104892,20.8737798 22.6104892,22.9076087 L22.6104892,25.7018179 C22.6104892,26.9855555 22.7157307,27.7914833 22.927096,28.1226125 C23.1380832,28.4528635 23.5378749,28.676084 24.1269752,28.7931525 C24.2678854,28.8302932 24.4792507,28.8679357 24.760693,28.9053274 C26.2067239,29.1170042 26.9301805,29.8081221 26.9301805,30.9785555 C26.9301805,31.5518521 26.7199496,32.0120954 26.2993617,32.3612932 C25.8790258,32.7098635 25.3180318,32.8842741 24.6175141,32.8842741 C23.725293,32.8842741 22.8619345,32.7390992 22.0273126,32.4491259 C21.1924386,32.158776 20.5011217,31.7617722 19.9533617,31.2571106 C19.3540522,30.7143046 18.9306915,30.0139015 18.6823971,29.1567798 C18.4337247,28.2985289 18.3094515,26.8289624 18.3094515,24.7479548 L18.3094515,22.4940422 C18.3094515,20.2108939 17.2514907,18.8976696 15.1365775,18.5554985 C15.0472168,18.5304034 14.9835677,18.517354 14.9453783,18.517354 C14.3337171,18.4153426 13.8809896,18.1975175 13.5879518,17.8645061 C13.2949141,17.5313692 13.1485843,17.0496696 13.1485843,16.4220422 C13.1485843,15.8712057 13.2727315,15.4358065 13.5212779,15.11597 C13.7695722,14.7958825 14.1679775,14.5652589 14.7159896,14.4243502 C14.957856,14.3484376 15.308493,14.2663768 15.7671443,14.1779167 C17.4618477,13.86197 18.3094515,12.6107304 18.3094515,10.4238217 L18.3094515,8.16790152 C18.3094515,6.23018669 18.4051141,4.87254411 18.5959352,4.09346806 C18.7873866,3.31489392 19.1124379,2.63419049 19.5712152,2.05135779 C20.1062454,1.4055365 20.8231481,0.902380608 21.721419,0.541513688 C22.619816,0.180646768 23.6107247,8.78326996e-05 24.6936409,8.78326996e-05 C25.3692032,8.78326996e-05 25.9106613,0.17474943 26.3186454,0.523445247 C26.7261254,0.87226654 26.9301805,1.33200798 26.9301805,1.90304601 C26.9301805,3.09568859 26.1558047,3.8125289 24.6073051,4.05331597 C24.4661428,4.06611445 24.3638002,4.07891293 24.299773,4.09146046 C23.6598794,4.19246806 23.2181171,4.42309163 22.9749903,4.78345665 C22.7318635,5.14382167 22.6104892,5.96229696 22.6104892,7.23875703 L22.6104892,10.0255631 C22.6104892,11.9293996 22.4196681,13.3254376 22.0392862,14.2138027 C21.6589043,15.1022932 20.9989707,15.8383312 20.0603677,16.4220422" id="Fill-4" fill="#FFFFFF"></path>
        <path d="M33.2178377,5.12865171 C33.2178377,4.93115361 33.2870324,4.76050722 33.4252958,4.61721445 C33.5639373,4.47392167 33.7270301,4.40227529 33.9152045,4.40227529 C34.3599916,4.40227529 34.9015758,4.64682662 35.5394528,5.13618023 C36.1778339,5.62515741 36.8625969,6.3248076 37.5946241,7.23400152 C38.7122007,8.62790646 39.5527463,10.0955909 40.1166392,11.6376821 C40.6802799,13.179397 40.9622263,14.785857 40.9622263,16.4560586 C40.9622263,18.2866175 40.6209162,20.0461574 39.9386739,21.7360586 C39.2560535,23.4260852 38.242206,25.0178646 36.8972573,26.5101422 C36.3234075,27.1424122 35.7745131,27.6302601 35.2504482,27.971051 C34.7260052,28.3123437 34.271135,28.4822373 33.8854595,28.4822373 C33.7072422,28.4822373 33.5515856,28.4158608 33.4179856,28.2826061 C33.2845116,28.1489749 33.2178377,27.9833475 33.2178377,27.7850966 C33.2178377,27.5682753 33.4591999,27.064492 33.9423026,26.2733703 C34.2967207,25.6897848 34.5724912,25.2154882 34.7696143,24.8498532 C35.5673071,23.3669863 36.1440558,21.9584008 36.4984739,20.6242221 C36.853018,19.2896669 37.0304792,17.9012829 37.0304792,16.4560586 C37.0304792,15.1614046 36.8879305,13.9060243 36.6022029,12.6904198 C36.3160973,11.4745643 35.8779901,10.2638532 35.2867471,9.05765932 C34.9614437,8.40531331 34.5356882,7.6417962 34.0084724,6.76710798 C33.4812565,5.89216882 33.2178377,5.34610038 33.2178377,5.12865171" id="Fill-6" fill="#FFFFFF"></path>
        <path d="M63.3268285,14.0467072 L61.0744082,14.0467072 L60.7629689,12.0419886 C60.4653938,11.7458669 60.0899274,11.5116046 59.6366957,11.339327 C59.183338,11.1671749 58.6488119,11.0809734 58.0329915,11.0809734 C56.7181659,11.0809734 55.7060829,11.5562738 54.9968685,12.507 C54.2874021,13.4577262 53.932858,14.697673 53.932858,16.2272167 L53.932858,16.7542129 C53.932858,18.2835057 54.2858897,19.5272167 54.991701,20.4847186 C55.6975123,21.4422205 56.6939666,21.9210342 57.981064,21.9210342 C58.5762142,21.9210342 59.1210753,21.8349582 59.6160255,21.6626806 C60.1105976,21.4905285 60.4931221,21.2562662 60.7629689,20.960019 L61.0744082,18.9551749 L63.3268285,18.9551749 L63.3268285,21.9313232 C62.7178142,22.6339848 61.9410436,23.1938555 60.9965168,23.6105589 C60.05199,24.0273878 58.9947855,24.2356768 57.8254074,24.2356768 C55.7977123,24.2356768 54.1369131,23.536654 52.8430097,22.137981 C51.5488542,20.7395589 50.9019025,18.9448859 50.9019025,16.7542129 L50.9019025,16.2477947 C50.9019025,14.0640228 51.5454512,12.2693498 52.8326746,10.8640266 C54.1197719,9.45857795 55.7839742,8.75591635 57.8254074,8.75591635 C58.9947855,8.75591635 60.0500995,8.96771863 60.9913493,9.39132319 C61.932347,9.81505323 62.7108821,10.3747985 63.3268285,11.0705589 L63.3268285,14.0467072 Z" id="Fill-8" fill="#FFFFFF"></path>
        <path d="M68.331598,18.5418844 C68.331598,19.5614966 68.5114538,20.3795954 68.8712915,20.996181 C69.2310032,21.6127665 69.8124153,21.9210593 70.6151497,21.9210593 C71.3970878,21.9210593 71.9698032,21.6110099 72.333044,20.9910365 C72.6964108,20.3709376 72.8780312,19.5545954 72.8780312,18.5418844 L72.8780312,18.3249376 C72.8780312,17.3328046 72.6946463,16.523489 72.3278765,15.896489 C71.9609806,15.2697399 71.3832236,14.9561772 70.5944795,14.9561772 C69.8054832,14.9561772 69.2310032,15.2697399 68.8712915,15.896489 C68.5114538,16.523489 68.331598,17.3328046 68.331598,18.3249376 L68.331598,18.5418844 Z M65.3006425,18.3249376 C65.3006425,16.6577475 65.7692508,15.291949 66.7070976,14.2275422 C67.6446923,13.1632608 68.9404863,12.6311202 70.5944795,12.6311202 C72.2551527,12.6311202 73.5543497,13.1616297 74.4920704,14.2223977 C75.4296651,15.2834167 75.8986515,16.6508464 75.8986515,18.3249376 L75.8986515,18.5418844 C75.8986515,20.2228768 75.4296651,21.5921886 74.4920704,22.6495688 C73.5543497,23.7070745 72.2620848,24.2357019 70.6151497,24.2357019 C68.9474183,24.2357019 67.6446923,23.7070745 66.7070976,22.6495688 C65.7692508,21.5921886 65.3006425,20.2228768 65.3006425,18.5418844 L65.3006425,18.3249376 Z" id="Fill-10" fill="#FFFFFF"></path>
        <path d="M80.7996037,18.7383034 C80.7996037,19.7166342 80.9639569,20.4864251 81.2926633,21.0478015 C81.6212437,21.6093034 82.1594248,21.8899916 82.9067026,21.8899916 C83.3494731,21.8899916 83.7336362,21.8005278 84.0589395,21.621349 C84.3841169,21.4422958 84.6505607,21.1838167 84.8582709,20.8462882 L84.8582709,16.103197 C84.6505607,15.7450905 84.3858814,15.4676646 84.0641071,15.2712958 C83.7423328,15.074927 83.3634633,14.9766798 82.9274988,14.9766798 C82.1869011,14.9766798 81.6472075,15.3040449 81.308292,15.958524 C80.9691245,16.6131285 80.7996037,17.4672388 80.7996037,18.5212312 L80.7996037,18.7383034 Z M85.0347237,22.6547635 C84.681692,23.1713452 84.2647592,23.5640829 83.7839252,23.832851 C83.3028392,24.1013681 82.754449,24.2357521 82.1386286,24.2357521 C80.7546082,24.2357521 79.6802626,23.7329726 78.9155916,22.7270373 C78.1509207,21.7212274 77.7686482,20.3915658 77.7686482,18.7383034 L77.7686482,18.5212312 C77.7686482,16.7578015 78.1526852,15.3350373 78.9208852,14.2534403 C79.6889592,13.1719688 80.7684724,12.6310449 82.1594248,12.6310449 C82.7199146,12.6310449 83.2249478,12.7533833 83.6749026,12.9978091 C84.1246052,13.2424859 84.5191033,13.5886722 84.8582709,14.0363681 L84.8582709,10.0269308 L83.238938,9.71700684 L83.238938,7.89811711 L84.8582709,7.89811711 L87.8892263,7.89811711 L87.8892263,21.9002806 L89.3424414,22.21033 L89.3424414,24.0188053 L85.2631041,24.0188053 L85.0347237,22.6547635 Z" id="Fill-12" fill="#FFFFFF"></path>
        <path d="M95.3434888,22.0036095 C95.8003755,22.0036095 96.2154178,21.9056133 96.5891197,21.709119 C96.9628216,21.5127502 97.2534646,21.2665677 97.4610488,20.9703205 L97.4610488,19.2652369 L95.9145657,19.2652369 C95.270891,19.2652369 94.7829989,19.4150544 94.4508895,19.7148148 C94.1187801,20.0143243 93.9526623,20.3745639 93.9526623,20.7946551 C93.9526623,21.1735905 94.0754231,21.4698376 94.3211967,21.6832711 C94.5667182,21.8969555 94.9075242,22.0036095 95.3434888,22.0036095 L95.3434888,22.0036095 Z M97.9698631,24.0188681 C97.8866782,23.8327882 97.8140805,23.6416894 97.7516918,23.4451951 C97.6894291,23.2488262 97.6410306,23.0509517 97.6064963,22.8510696 C97.2466586,23.2643852 96.8086774,23.5986513 96.2934352,23.8533662 C95.7776888,24.1082065 95.1879582,24.2356894 94.5236133,24.2356894 C93.4233038,24.2356894 92.5496103,23.9379365 91.9026586,23.3419289 C91.2554548,22.7461722 90.932042,21.934849 90.932042,20.9083357 C90.932042,19.8612445 91.3541423,19.0518034 92.1984691,18.4798871 C93.0426699,17.9080962 94.2812427,17.6222635 95.9145657,17.6222635 L97.4610488,17.6222635 L97.4610488,16.5268643 C97.4610488,15.9894536 97.3053922,15.5727502 96.9940789,15.276503 C96.6826397,14.9802559 96.2223499,14.8321951 95.6135876,14.8321951 C95.267362,14.8321951 94.9594518,14.8718452 94.689605,14.9508947 C94.4197582,15.0301951 94.2017129,15.1250544 94.0357212,15.2352217 L93.8384722,16.4337616 L91.5547944,16.4337616 L91.5652555,13.9537426 C92.1188133,13.5817084 92.7537914,13.2683966 93.4699378,13.0134308 C94.1862103,12.7585905 94.9663838,12.6311076 95.8107106,12.6311076 C97.2015371,12.6311076 98.3312133,12.9703928 99.1997393,13.6488376 C100.068139,14.3275335 100.502465,15.2936932 100.502465,16.5475677 L100.502465,21.1666894 C100.502465,21.3389669 100.504104,21.50083 100.507633,21.6522787 C100.511036,21.8038529 100.523136,21.9486513 100.544058,22.0862977 L101.467914,22.2102673 L101.467914,24.0188681 L97.9698631,24.0188681 Z" id="Fill-14" fill="#FFFFFF"></path>
        <mask id="mask-2" fill="white">
            <use xlink:href="#path-1"></use>
        </mask>
        <g id="Clip-17"></g>
        <path d="M104.375756,10.1612395 L107.406712,10.1612395 L107.406712,7.8981673 L104.375756,7.8981673 L104.375756,10.1612395 Z M102.912206,22.2103802 L104.375756,21.9003308 L104.375756,14.9664411 L102.756423,14.6563916 L102.756423,12.8376274 L107.406712,12.8376274 L107.406712,21.9003308 L108.859927,22.2103802 L108.859927,24.0188555 L102.912206,24.0188555 L102.912206,22.2103802 Z" id="Fill-16" fill="#FFFFFF" mask="url(#mask-2)"></path>
        <path d="M119.532273,16.6818137 L117.497772,16.6818137 L117.176123,15.2867795 C116.968413,15.121403 116.707137,14.9837567 116.392295,14.8734639 C116.077326,14.7632966 115.729588,14.7082129 115.349206,14.7082129 C114.816193,14.7082129 114.394093,14.8269125 114.082779,15.0645627 C113.77134,15.3023384 113.615683,15.6003422 113.615683,15.9584487 C113.615683,16.2961027 113.764408,16.5769163 114.062109,16.8006388 C114.359432,17.0246122 114.954708,17.2228631 115.847434,17.3948897 C117.238386,17.6705589 118.269249,18.0752167 118.940652,18.6089886 C119.611803,19.1430114 119.947441,19.8785475 119.947441,20.8152205 C119.947441,21.8212814 119.513241,22.6427681 118.644841,23.2799316 C117.776189,23.9170951 116.632649,24.2356768 115.21422,24.2356768 C114.349097,24.2356768 113.554933,24.1099506 112.831981,23.8584981 C112.108776,23.6070456 111.466992,23.247308 110.906502,22.7787833 L110.875245,20.2675209 L112.992805,20.2675209 L113.408099,21.7246654 C113.587955,21.8762395 113.833603,21.9881635 114.145042,22.0604373 C114.456481,22.132711 114.781659,22.1689734 115.120826,22.1689734 C115.736646,22.1689734 116.205381,22.0589316 116.527281,21.838346 C116.849056,21.6178859 117.00988,21.318251 117.00988,20.9393156 C117.00988,20.6086882 116.847291,20.3228555 116.522114,20.0815665 C116.196684,19.8405285 115.598257,19.6269696 114.726328,19.4408897 C113.40457,19.1723726 112.406351,18.774365 111.731671,18.2474943 C111.056991,17.7203726 110.719588,17.0022776 110.719588,16.0928327 C110.719588,15.1560342 111.107028,14.3480989 111.882286,13.6695285 C112.657166,12.9910837 113.761005,12.651673 115.193424,12.651673 C116.065353,12.651673 116.890522,12.7688669 117.669057,13.0031293 C118.447592,13.2373916 119.058119,13.5370266 119.501142,13.9021597 L119.532273,16.6818137 Z" id="Fill-18" fill="#FFFFFF" mask="url(#mask-2)"></path>
        <path d="M130.98299,16.6818137 L128.948489,16.6818137 L128.626841,15.2867795 C128.419131,15.121403 128.157854,14.9837567 127.843012,14.8734639 C127.528044,14.7632966 127.180306,14.7082129 126.799924,14.7082129 C126.26691,14.7082129 125.84481,14.8269125 125.533497,15.0645627 C125.222057,15.3023384 125.066401,15.6003422 125.066401,15.9584487 C125.066401,16.2961027 125.215125,16.5769163 125.512826,16.8006388 C125.81015,17.0246122 126.405426,17.2228631 127.298151,17.3948897 C128.689103,17.6705589 129.719966,18.0752167 130.391369,18.6089886 C131.06252,19.1430114 131.398159,19.8785475 131.398159,20.8152205 C131.398159,21.8212814 130.963959,22.6427681 130.095559,23.2799316 C129.226906,23.9170951 128.083366,24.2356768 126.664937,24.2356768 C125.799814,24.2356768 125.005651,24.1099506 124.282698,23.8584981 C123.559494,23.6070456 122.91771,23.247308 122.35722,22.7787833 L122.325962,20.2675209 L124.443522,20.2675209 L124.858817,21.7246654 C125.038673,21.8762395 125.28432,21.9881635 125.595759,22.0604373 C125.907199,22.132711 126.232376,22.1689734 126.571543,22.1689734 C127.187364,22.1689734 127.656098,22.0589316 127.977999,21.838346 C128.299773,21.6178859 128.460597,21.318251 128.460597,20.9393156 C128.460597,20.6086882 128.298008,20.3228555 127.972831,20.0815665 C127.647402,19.8405285 127.048974,19.6269696 126.177045,19.4408897 C124.855288,19.1723726 123.857069,18.774365 123.182389,18.2474943 C122.507709,17.7203726 122.170306,17.0022776 122.170306,16.0928327 C122.170306,15.1560342 122.557746,14.3480989 123.333004,13.6695285 C124.107884,12.9910837 125.211722,12.651673 126.644141,12.651673 C127.51607,12.651673 128.341239,12.7688669 129.119774,13.0031293 C129.89831,13.2373916 130.508836,13.5370266 130.951859,13.9021597 L130.98299,16.6818137 Z" id="Fill-19" fill="#FFFFFF" mask="url(#mask-2)"></path>
        <path d="M138.375154,14.9561646 C137.814664,14.9561646 137.371641,15.1697236 137.046464,15.596716 C136.721161,16.0240848 136.520509,16.5854612 136.444508,17.2812217 L136.475639,17.332792 L140.19161,17.332792 L140.19161,17.0642749 C140.19161,16.4234726 140.041121,15.9119099 139.740143,15.5295867 C139.439038,15.1472635 138.984042,14.9561646 138.375154,14.9561646 M138.645127,24.2356894 C137.025794,24.2356894 135.731638,23.7191076 134.762912,22.6856932 C133.793934,21.6522787 133.309697,20.3399327 133.309697,18.7486551 L133.309697,18.3352141 C133.309697,16.6750506 133.76797,15.3074954 134.685021,14.2326741 C135.60182,13.1581038 136.831948,12.6242065 138.375154,12.6311076 C139.890632,12.6311076 141.066942,13.0857046 141.904337,13.9951494 C142.741605,14.9044688 143.160303,16.1342521 143.160303,17.6842483 L143.160303,19.3272217 L136.454843,19.3272217 L136.434173,19.3892065 C136.489377,20.1264992 136.736663,20.7326703 137.176157,21.2079707 C137.61565,21.6832711 138.212439,21.9210468 138.966775,21.9210468 C139.638052,21.9210468 140.195013,21.8539175 140.638035,21.7195335 C141.080806,21.5851494 141.565295,21.3733471 142.091124,21.0840011 L142.911126,22.9440468 C142.447559,23.3093053 141.847241,23.615716 141.110299,23.8636551 C140.373356,24.1117198 139.551464,24.2356894 138.645127,24.2356894" id="Fill-20" fill="#FFFFFF" mask="url(#mask-2)"></path>
        <path d="M152.960707,22.6030426 C152.600869,23.126651 152.156208,23.5296776 151.62685,23.8121224 C151.097491,24.0945673 150.49377,24.235727 149.815561,24.235727 C148.632193,24.235727 147.704933,23.8585483 147.033782,23.1041909 C146.362379,22.3498335 146.026867,21.177016 146.026867,19.5854875 L146.026867,14.9664913 L144.791697,14.6564418 L144.791697,12.8376776 L146.026867,12.8376776 L149.057822,12.8376776 L149.057822,19.6063163 C149.057822,20.4192707 149.194321,21.0029817 149.467823,21.3578259 C149.741073,21.71267 150.147797,21.8899665 150.68749,21.8899665 C151.165047,21.8899665 151.578325,21.8124228 151.927954,21.6575863 C152.277204,21.5024989 152.562806,21.2802821 152.78438,20.9909361 L152.78438,14.9664913 L151.45569,14.6564418 L151.45569,12.8376776 L152.78438,12.8376776 L155.81521,12.8376776 L155.81521,21.9002555 L157.175031,22.2103049 L157.175031,24.0187802 L153.15783,24.0187802 L152.960707,22.6030426 Z" id="Fill-21" fill="#FFFFFF" mask="url(#mask-2)"></path>
        <path d="M159.107252,22.2103175 L160.560467,21.9002681 L160.560467,14.9665038 L158.951596,14.6564544 L158.951596,12.8376901 L163.383965,12.8376901 L163.518825,14.4703745 C163.78174,13.8916825 164.120781,13.4405989 164.536076,13.1166217 C164.951244,12.7928954 165.432204,12.6310323 165.978956,12.6310323 C166.138015,12.6310323 166.305772,12.6430779 166.48235,12.6671692 C166.658803,12.6913859 166.805637,12.7206217 166.923482,12.7551274 L166.601708,15.503789 L165.356077,15.4727966 C164.913055,15.4727966 164.546411,15.5589981 164.255894,15.7311502 C163.965125,15.9034278 163.74355,16.1481046 163.591423,16.4648042 L163.591423,21.9002681 L165.044638,22.2103175 L165.044638,24.0187928 L159.107252,24.0187928 L159.107252,22.2103175 Z" id="Fill-22" fill="#FFFFFF" mask="url(#mask-2)"></path>
    </g>
</svg>
